<svg width="13" height="13" viewBox="0 0 13 13" fill="none" xmlns="http://www.w3.org/2000/svg">
<path d="M12.6338 3.15942L9.84126 0.366296C9.72518 0.250169 9.58735 0.158049 9.43566 0.095199C9.28397 0.0323489 9.12139 0 8.95719 0C8.793 0 8.63041 0.0323489 8.47872 0.095199C8.32703 0.158049 8.18921 0.250169 8.07313 0.366296L0.366255 8.0738C0.249757 8.18953 0.157394 8.32725 0.0945235 8.47895C0.0316531 8.63065 -0.000473942 8.79333 5.28325e-06 8.95755V11.7507C5.28325e-06 12.0822 0.131701 12.4001 0.366122 12.6346C0.600542 12.869 0.918485 13.0007 1.25001 13.0007H4.04313C4.20734 13.0011 4.37001 12.969 4.52171 12.9061C4.67341 12.8432 4.81112 12.7509 4.92688 12.6344L12.6338 4.92692C12.8681 4.69251 12.9997 4.37463 12.9997 4.04317C12.9997 3.71172 12.8681 3.39383 12.6338 3.15942ZM4.06251 10.0007L8.50001 5.56317L9.18751 6.25067L4.75001 10.6882L4.06251 10.0007ZM3.00001 8.93817L2.31251 8.25067L6.75001 3.81317L7.43751 4.50067L3.00001 8.93817ZM1.50001 9.56317L2.46938 10.5325L3.43751 11.5007H1.50001V9.56317ZM10.25 5.18817L7.81251 2.75067L8.95876 1.60442L11.3963 4.04192L10.25 5.18817Z" fill="white"/>
</svg>
