<svg width="919" height="251" viewBox="0 0 919 251" fill="none" xmlns="http://www.w3.org/2000/svg">
<path d="M71.6568 119.556C58.4275 119.556 47.0568 117.096 37.5448 112.176C28.0328 107.147 20.7074 100.149 15.5688 91.184C10.5394 82.2187 8.02478 71.7227 8.02478 59.696C8.02478 50.7307 9.44611 42.5853 12.2888 35.26C15.2408 27.9347 19.4501 21.648 24.9168 16.4C30.4928 11.152 37.1621 7.10667 44.9248 4.26401C52.7968 1.42134 61.7075 1.14441e-05 71.6568 1.14441e-05C76.1395 1.14441e-05 80.9501 0.492012 86.0888 1.47601C91.3368 2.46001 95.9288 3.88134 99.8648 5.74001C103.473 7.48934 105.987 9.78534 107.409 12.628C108.83 15.4707 109.377 18.4227 109.049 21.484C108.721 24.5453 107.737 27.3333 106.097 29.848C104.457 32.2533 102.325 34.0027 99.7008 35.096C97.0768 36.08 94.1795 35.916 91.0088 34.604C87.8381 33.292 84.8314 32.308 81.9888 31.652C79.1461 30.996 76.1395 30.668 72.9688 30.668C66.7368 30.668 61.5435 31.816 57.3888 34.112C53.3434 36.2987 50.2821 39.524 48.2048 43.788C46.2368 48.052 45.2528 53.3547 45.2528 59.696C45.2528 66.0373 46.2368 71.3947 48.2048 75.768C50.2821 80.032 53.3434 83.312 57.3888 85.608C61.5435 87.7947 66.7368 88.888 72.9688 88.888C75.1555 88.888 77.6701 88.6693 80.5128 88.232C83.3554 87.6853 86.1981 86.8653 89.0408 85.772C92.7581 84.2413 96.0928 83.968 99.0448 84.952C101.997 85.8267 104.347 87.4667 106.097 89.872C107.955 92.2773 109.049 95.0107 109.377 98.072C109.814 101.133 109.322 104.085 107.901 106.928C106.589 109.661 104.238 111.848 100.849 113.488C97.3501 115.237 92.8675 116.659 87.4008 117.752C82.0435 118.955 76.7955 119.556 71.6568 119.556ZM178.088 119.556C166.17 119.556 155.62 117.041 146.436 112.012C137.361 106.983 130.254 99.9853 125.116 91.02C120.086 81.9453 117.572 71.504 117.572 59.696C117.572 50.7307 118.993 42.5853 121.836 35.26C124.788 27.9347 128.942 21.648 134.3 16.4C139.657 11.152 146.053 7.10667 153.488 4.26401C160.922 1.42134 169.122 1.14441e-05 178.088 1.14441e-05C190.114 1.14441e-05 200.665 2.51468 209.74 7.54401C218.814 12.464 225.866 19.4067 230.896 28.372C236.034 37.3373 238.604 47.7787 238.604 59.696C238.604 68.6613 237.128 76.8067 234.176 84.132C231.333 91.4573 227.233 97.7987 221.876 103.156C216.518 108.404 210.122 112.449 202.688 115.292C195.253 118.135 187.053 119.556 178.088 119.556ZM178.088 90.2C183.117 90.2 187.381 88.9973 190.88 86.592C194.488 84.0773 197.221 80.5787 199.08 76.096C201.048 71.504 202.032 66.0373 202.032 59.696C202.032 50.184 199.9 42.7493 195.636 37.392C191.372 32.0347 185.522 29.356 178.088 29.356C173.168 29.356 168.904 30.5587 165.296 32.964C161.688 35.3693 158.9 38.8133 156.932 43.296C155.073 47.7787 154.144 53.2453 154.144 59.696C154.144 69.3173 156.276 76.8067 160.54 82.164C164.804 87.5213 170.653 90.2 178.088 90.2ZM272.603 117.588C266.918 117.588 262.49 116.057 259.319 112.996C256.258 109.825 254.727 105.397 254.727 99.712V19.844C254.727 14.0493 256.258 9.62134 259.319 6.56001C262.38 3.49867 266.754 1.96801 272.439 1.96801C278.124 1.96801 282.443 3.49867 285.395 6.56001C288.456 9.62134 289.987 14.0493 289.987 19.844V88.396H325.903C330.714 88.396 334.376 89.6533 336.891 92.168C339.515 94.6827 340.827 98.2907 340.827 102.992C340.827 107.693 339.515 111.301 336.891 113.816C334.376 116.331 330.714 117.588 325.903 117.588H272.603ZM370.619 117.588C364.933 117.588 360.505 116.057 357.335 112.996C354.273 109.825 352.743 105.397 352.743 99.712V19.844C352.743 14.0493 354.273 9.62134 357.335 6.56001C360.396 3.49867 364.769 1.96801 370.455 1.96801C376.14 1.96801 380.459 3.49867 383.411 6.56001C386.472 9.62134 388.003 14.0493 388.003 19.844V88.396H423.919C428.729 88.396 432.392 89.6533 434.907 92.168C437.531 94.6827 438.843 98.2907 438.843 102.992C438.843 107.693 437.531 111.301 434.907 113.816C432.392 116.331 428.729 117.588 423.919 117.588H370.619ZM468.962 117.588C463.058 117.588 458.521 116.057 455.35 112.996C452.289 109.825 450.758 105.288 450.758 99.384V20.172C450.758 14.268 452.289 9.78534 455.35 6.724C458.521 3.55334 463.058 1.96801 468.962 1.96801H523.082C527.565 1.96801 530.954 3.11601 533.25 5.41201C535.546 7.70801 536.694 11.0427 536.694 15.416C536.694 19.7893 535.546 23.124 533.25 25.42C530.954 27.716 527.565 28.864 523.082 28.864H484.378V45.428H519.31C523.793 45.428 527.182 46.576 529.478 48.872C531.774 51.168 532.922 54.5027 532.922 58.876C532.922 63.2493 531.774 66.584 529.478 68.88C527.182 71.176 523.793 72.324 519.31 72.324H484.378V90.692H523.082C527.565 90.692 530.954 91.84 533.25 94.136C535.546 96.432 536.694 99.7667 536.694 104.14C536.694 108.513 535.546 111.848 533.25 114.144C530.954 116.44 527.565 117.588 523.082 117.588H468.962ZM614.586 119.556C601.357 119.556 589.986 117.096 580.474 112.176C570.962 107.147 563.637 100.149 558.498 91.184C553.469 82.2187 550.954 71.7227 550.954 59.696C550.954 50.7307 552.376 42.5853 555.218 35.26C558.17 27.9347 562.38 21.648 567.846 16.4C573.422 11.152 580.092 7.10667 587.854 4.26401C595.726 1.42134 604.637 1.14441e-05 614.586 1.14441e-05C619.069 1.14441e-05 623.88 0.492012 629.018 1.47601C634.266 2.46001 638.858 3.88134 642.794 5.74001C646.402 7.48934 648.917 9.78534 650.338 12.628C651.76 15.4707 652.306 18.4227 651.978 21.484C651.65 24.5453 650.666 27.3333 649.026 29.848C647.386 32.2533 645.254 34.0027 642.63 35.096C640.006 36.08 637.109 35.916 633.938 34.604C630.768 33.292 627.761 32.308 624.918 31.652C622.076 30.996 619.069 30.668 615.898 30.668C609.666 30.668 604.473 31.816 600.318 34.112C596.273 36.2987 593.212 39.524 591.134 43.788C589.166 48.052 588.182 53.3547 588.182 59.696C588.182 66.0373 589.166 71.3947 591.134 75.768C593.212 80.032 596.273 83.312 600.318 85.608C604.473 87.7947 609.666 88.888 615.898 88.888C618.085 88.888 620.6 88.6693 623.442 88.232C626.285 87.6853 629.128 86.8653 631.97 85.772C635.688 84.2413 639.022 83.968 641.974 84.952C644.926 85.8267 647.277 87.4667 649.026 89.872C650.885 92.2773 651.978 95.0107 652.306 98.072C652.744 101.133 652.252 104.085 650.83 106.928C649.518 109.661 647.168 111.848 643.778 113.488C640.28 115.237 635.797 116.659 630.33 117.752C624.973 118.955 619.725 119.556 614.586 119.556ZM710.136 119.228C704.45 119.228 700.077 117.697 697.016 114.636C693.954 111.465 692.424 107.037 692.424 101.352V30.504H670.12C665.418 30.504 661.81 29.3013 659.296 26.896C656.89 24.3813 655.688 20.828 655.688 16.236C655.688 11.644 656.89 8.14534 659.296 5.74001C661.81 3.22534 665.418 1.96801 670.12 1.96801H749.988C754.689 1.96801 758.242 3.22534 760.648 5.74001C763.162 8.14534 764.42 11.644 764.42 16.236C764.42 20.828 763.162 24.3813 760.648 26.896C758.242 29.3013 754.689 30.504 749.988 30.504H727.684V101.352C727.684 107.037 726.208 111.465 723.256 114.636C720.304 117.697 715.93 119.228 710.136 119.228ZM215.929 250.228C211.228 250.228 207.347 249.244 204.285 247.276C201.333 245.199 198.873 241.973 196.905 237.6L158.857 154.944C156.78 150.352 156.124 146.307 156.889 142.808C157.655 139.2 159.404 136.412 162.137 134.444C164.98 132.367 168.479 131.328 172.633 131.328C177.881 131.328 181.817 132.476 184.441 134.772C187.175 137.068 189.471 140.457 191.329 144.94L221.669 215.296H211.337L241.841 144.776C243.7 140.293 245.941 136.959 248.565 134.772C251.299 132.476 255.125 131.328 260.045 131.328C263.981 131.328 267.261 132.367 269.885 134.444C272.509 136.412 274.149 139.2 274.805 142.808C275.571 146.307 274.915 150.352 272.837 154.944L234.789 237.6C232.821 241.973 230.361 245.199 227.409 247.276C224.567 249.244 220.74 250.228 215.929 250.228ZM305.603 248.588C299.699 248.588 295.161 247.057 291.991 243.996C288.929 240.825 287.399 236.288 287.399 230.384V151.172C287.399 145.268 288.929 140.785 291.991 137.724C295.161 134.553 299.699 132.968 305.603 132.968H359.723C364.205 132.968 367.595 134.116 369.891 136.412C372.187 138.708 373.335 142.043 373.335 146.416C373.335 150.789 372.187 154.124 369.891 156.42C367.595 158.716 364.205 159.864 359.723 159.864H321.019V176.428H355.951C360.433 176.428 363.823 177.576 366.119 179.872C368.415 182.168 369.563 185.503 369.563 189.876C369.563 194.249 368.415 197.584 366.119 199.88C363.823 202.176 360.433 203.324 355.951 203.324H321.019V221.692H359.723C364.205 221.692 367.595 222.84 369.891 225.136C372.187 227.432 373.335 230.767 373.335 235.14C373.335 239.513 372.187 242.848 369.891 245.144C367.595 247.44 364.205 248.588 359.723 248.588H305.603ZM407.451 250.228C401.765 250.228 397.392 248.697 394.331 245.636C391.269 242.465 389.739 238.037 389.739 232.352V150.844C389.739 145.049 391.269 140.621 394.331 137.56C397.501 134.499 401.929 132.968 407.615 132.968H448.451C461.789 132.968 472.067 136.303 479.283 142.972C486.608 149.532 490.271 158.552 490.271 170.032C490.271 177.576 488.631 184.136 485.351 189.712C482.071 195.179 477.315 199.443 471.083 202.504C464.96 205.456 457.416 206.932 448.451 206.932L449.599 203.816H458.947C463.757 203.816 468.021 204.964 471.739 207.26C475.456 209.447 478.517 212.781 480.923 217.264L486.663 227.596C488.74 231.313 489.669 234.921 489.451 238.42C489.341 241.809 487.975 244.652 485.351 246.948C482.836 249.135 479.009 250.228 473.871 250.228C468.951 250.228 464.905 249.244 461.735 247.276C458.564 245.199 455.776 241.973 453.371 237.6L439.267 211.852C438.392 210.212 437.135 209.064 435.495 208.408C433.855 207.643 432.16 207.26 430.411 207.26H424.999V232.352C424.999 238.037 423.523 242.465 420.571 245.636C417.619 248.697 413.245 250.228 407.451 250.228ZM424.999 182.66H441.891C446.701 182.66 450.364 181.731 452.879 179.872C455.503 178.013 456.815 175.116 456.815 171.18C456.815 167.353 455.503 164.511 452.879 162.652C450.364 160.793 446.701 159.864 441.891 159.864H424.999V182.66ZM551.425 250.556C547.27 250.556 542.842 250.228 538.141 249.572C533.439 249.025 528.902 248.26 524.529 247.276C520.265 246.183 516.438 244.98 513.049 243.668C509.55 242.247 507.09 240.224 505.669 237.6C504.247 234.867 503.701 231.969 504.029 228.908C504.357 225.847 505.395 223.113 507.145 220.708C508.894 218.303 511.245 216.663 514.197 215.788C517.149 214.804 520.483 215.077 524.201 216.608C528.027 218.139 532.51 219.396 537.649 220.38C542.897 221.364 547.489 221.856 551.425 221.856C557.766 221.856 562.085 221.145 564.381 219.724C566.677 218.303 567.825 216.663 567.825 214.804C567.825 213.055 567.005 211.633 565.365 210.54C563.834 209.337 560.937 208.299 556.673 207.424L536.993 203.16C526.387 200.864 518.515 196.928 513.377 191.352C508.238 185.776 505.669 178.615 505.669 169.868C505.669 163.964 506.871 158.661 509.277 153.96C511.791 149.149 515.29 145.049 519.773 141.66C524.255 138.271 529.613 135.647 535.845 133.788C542.077 131.929 549.019 131 556.673 131C561.811 131 567.278 131.547 573.073 132.64C578.867 133.733 583.842 135.319 587.997 137.396C590.949 138.817 593.081 140.84 594.393 143.464C595.814 146.088 596.415 148.821 596.197 151.664C595.978 154.507 595.049 157.076 593.409 159.372C591.878 161.559 589.691 163.089 586.849 163.964C584.006 164.729 580.562 164.401 576.517 162.98C573.783 161.996 570.503 161.231 566.677 160.684C562.85 160.028 559.351 159.7 556.181 159.7C552.682 159.7 549.73 160.083 547.325 160.848C544.919 161.504 543.115 162.488 541.913 163.8C540.71 165.003 540.109 166.424 540.109 168.064C540.109 169.485 540.874 170.797 542.405 172C543.935 173.093 546.887 174.077 551.261 174.952L570.941 179.216C581.437 181.512 589.254 185.393 594.393 190.86C599.641 196.327 602.265 203.324 602.265 211.852C602.265 217.756 601.062 223.113 598.657 227.924C596.251 232.625 592.807 236.671 588.325 240.06C583.951 243.449 578.649 246.073 572.417 247.932C566.185 249.681 559.187 250.556 551.425 250.556ZM633.603 248.588C627.699 248.588 623.161 247.057 619.991 243.996C616.929 240.825 615.399 236.288 615.399 230.384V151.172C615.399 145.268 616.929 140.785 619.991 137.724C623.161 134.553 627.699 132.968 633.603 132.968H687.723C692.205 132.968 695.595 134.116 697.891 136.412C700.187 138.708 701.335 142.043 701.335 146.416C701.335 150.789 700.187 154.124 697.891 156.42C695.595 158.716 692.205 159.864 687.723 159.864H649.019V176.428H683.951C688.433 176.428 691.823 177.576 694.119 179.872C696.415 182.168 697.563 185.503 697.563 189.876C697.563 194.249 696.415 197.584 694.119 199.88C691.823 202.176 688.433 203.324 683.951 203.324H649.019V221.692H687.723C692.205 221.692 695.595 222.84 697.891 225.136C700.187 227.432 701.335 230.767 701.335 235.14C701.335 239.513 700.187 242.848 697.891 245.144C695.595 247.44 692.205 248.588 687.723 248.588H633.603Z" fill="url(#paint0_linear_85_716)"/>
<ellipse cx="830.7" cy="65.588" rx="59.4676" ry="52" fill="url(#paint1_linear_85_716)"/>
<path d="M889.161 28.34C882.938 28.8039 879.357 29.3297 879.508 29.7627C879.569 29.9483 880.115 30.8143 880.723 31.6493L881.785 33.1648L883.546 32.9483C886.247 32.6081 893.866 32.639 896.082 33.0102C901.576 33.9071 905.036 37.4329 904.429 41.5464C903.64 46.928 897.205 53.6704 885.003 61.8973C859.687 79.0008 824.355 93.5062 795.913 98.5166C783.772 100.651 771.903 100.805 764.345 98.9496C761.886 98.331 758.426 96.7537 757.121 95.6093C752.628 91.7433 754.571 84.9081 762.251 77.3615C763.829 75.8151 765.863 73.9904 766.773 73.279L768.443 71.98L768.352 69.6294L768.23 67.2789L765.772 69.0418C761.552 72.0728 758.365 74.7326 758.365 74.7326L756.544 76.2791C756.544 76.2791 749.198 83.2689 747.407 85.7122C742.065 93.0113 741.579 98.8568 745.95 103.249C750.261 107.548 758.881 109.682 772.116 109.682C794.396 109.682 823.748 102.383 851.795 89.8876C864.149 84.3514 890.466 68.5469 890.466 68.5469L894.777 65.9799C908.284 56.6086 917.056 47.361 918.696 40.7423C920.274 34.5257 915.69 30.3503 905.522 28.8039C901.91 28.2472 893.593 27.9998 889.161 28.34Z" fill="url(#paint2_linear_85_716)"/>
<defs>
<linearGradient id="paint0_linear_85_716" x1="431" y1="13.588" x2="431" y2="245.588" gradientUnits="userSpaceOnUse">
<stop stop-color="#51419F"/>
<stop offset="1" stop-color="#B85DD4"/>
</linearGradient>
<linearGradient id="paint1_linear_85_716" x1="830.7" y1="13.588" x2="838.118" y2="130.423" gradientUnits="userSpaceOnUse">
<stop stop-color="#51419F"/>
<stop offset="1" stop-color="#B85DD4"/>
</linearGradient>
<linearGradient id="paint2_linear_85_716" x1="761.361" y1="122.953" x2="916.873" y2="-27.1732" gradientUnits="userSpaceOnUse">
<stop stop-color="#51419F"/>
<stop offset="1" stop-color="#B85DD4"/>
</linearGradient>
</defs>
</svg>
