<svg width="176" height="104" viewBox="0 0 176 104" fill="none" xmlns="http://www.w3.org/2000/svg">
<ellipse cx="87.7" cy="52" rx="59.4676" ry="52" fill="url(#paint0_linear_85_725)"/>
<path d="M146.161 14.752C139.938 15.2159 136.357 15.7417 136.508 16.1747C136.569 16.3602 137.115 17.2262 137.723 18.0613L138.785 19.5768L140.546 19.3603C143.247 19.0201 150.866 19.051 153.082 19.4222C158.576 20.3191 162.036 23.8449 161.429 27.9584C160.64 33.34 154.205 40.0824 142.003 48.3093C116.687 65.4127 81.355 79.9182 52.9132 84.9286C40.7716 87.0626 28.9032 87.2173 21.345 85.3616C18.8863 84.743 15.4259 83.1657 14.1207 82.0213C9.62832 78.1553 11.571 71.3201 19.2506 63.7735C20.829 62.2271 22.8627 60.4023 23.7733 59.691L25.4428 58.392L25.3517 56.0414L25.2303 53.6909L22.7716 55.4538C18.5524 58.4848 15.3652 61.1446 15.3652 61.1446L13.544 62.691C13.544 62.691 6.1983 69.6809 4.40741 72.1242C-0.934906 79.4233 -1.42057 85.2688 2.95042 89.6606C7.2607 93.9597 15.8813 96.0938 29.1156 96.0938C51.3955 96.0938 80.7479 88.7946 108.795 76.2996C121.149 70.7634 147.466 54.9589 147.466 54.9589L151.777 52.3919C165.284 43.0206 174.056 33.773 175.696 27.1543C177.274 20.9377 172.69 16.7623 162.522 15.2159C158.91 14.6592 150.593 14.4118 146.161 14.752Z" fill="url(#paint1_linear_85_725)"/>
<defs>
<linearGradient id="paint0_linear_85_725" x1="87.7" y1="0" x2="95.118" y2="116.834" gradientUnits="userSpaceOnUse">
<stop stop-color="#51419F"/>
<stop offset="1" stop-color="#B85DD4"/>
</linearGradient>
<linearGradient id="paint1_linear_85_725" x1="18.3608" y1="109.365" x2="173.873" y2="-40.7612" gradientUnits="userSpaceOnUse">
<stop stop-color="#51419F"/>
<stop offset="1" stop-color="#B85DD4"/>
</linearGradient>
</defs>
</svg>
